<svg width="127" height="44" viewBox="0 0 127 44" fill="none" xmlns="http://www.w3.org/2000/svg">
<g clip-path="url(#clip0_10227_133)">
<path d="M50.8605 20.2155L47.9918 19.3787L43.4207 21.355L44.6699 24.771L50.8605 20.2155Z" fill="white"/>
<path d="M47.0845 19.18L41.3372 17.9893L43.1799 20.8669L47.0845 19.18Z" fill="white"/>
<path d="M55.5198 18.8702L56.4013 16.8955L49.672 16.5176L48.3845 18.9322L51.4757 19.8352L55.5198 18.8702Z" fill="white"/>
<path d="M49.1556 16.022L48.8775 14.1523L44.6907 14.9693L46.0312 16.4859L49.1556 16.022Z" fill="white"/>
<path d="M46.4504 16.9575L47.9031 18.6031L48.9763 16.5837L46.4504 16.9575Z" fill="white"/>
<path d="M40.5205 17.7846L33.6509 13.053L35.9253 21.3288L42.5608 20.9749L40.5205 17.7846Z" fill="white"/>
<path d="M40.8807 17.3611L47.1784 18.661L32.8623 2.45996L33.4558 12.2424L40.8807 17.3611Z" fill="white"/>
<path d="M60.3374 19.1131L61.663 19.0139L61.678 18.3201L60.535 18.6409L60.3374 19.1131Z" fill="white"/>
<path d="M60.5283 18.0887L61.4247 17.8324L58.7079 15.55L57.3657 16.6184L60.5283 18.0887Z" fill="white"/>
<path d="M32.5967 29.4588L33.7388 30.2469L36.6457 25.8369L35.5135 22L32.5967 29.4588Z" fill="white"/>
<path d="M59.9829 18.4465L58.4448 17.7329L59.7754 18.9336L59.9829 18.4465Z" fill="white"/>
<path d="M42.1939 21.5288L36.083 21.8497L37.1256 25.3938L42.1939 21.5288Z" fill="white"/>
<path d="M56.7308 16.3826L58.0075 15.3621L49.4719 14.1523L49.75 15.9947L56.7308 16.3826Z" fill="white"/>
<path d="M56.9374 17.1294L56.1206 18.9585L58.8225 20.0501L59.4799 19.4216L56.9374 17.1294Z" fill="white"/>
<path d="M59.333 20.333L61.0272 21.4824L59.8518 19.8418L59.333 20.333Z" fill="white"/>
<path d="M37.4858 25.814L43.8192 28.8008L44.226 25.2434L42.9186 21.6694L37.4858 25.814Z" fill="white"/>
<path d="M44.811 25.3572L44.4417 28.5574L51.5038 22.7491L51.2366 20.6272L44.811 25.3572Z" fill="white"/>
<path d="M61.981 22.1552L62.1237 23.0243L62.6475 22.0081L61.981 22.1552Z" fill="white"/>
<path d="M61.756 19.5359L60.4038 19.6401L61.8307 21.6247L62.5719 21.4601L61.756 19.5359Z" fill="white"/>
<path d="M51.7961 20.3062L52.0692 22.4612L58.132 20.3484L55.7165 19.3701L51.7961 20.3062Z" fill="white"/>
<path d="M32.9727 12.7964L19.6726 20.1692L35.3119 21.3079L32.9727 12.7964Z" fill="white"/>
<path d="M34.2983 30.4429L35.873 30.6694L43.2182 29.119L37.0691 26.2173L34.2983 30.4429Z" fill="white"/>
<path d="M32.3169 29.9385L27.6909 36.7449L30.2865 39.6556L33.4765 30.7414L32.3169 29.9385Z" fill="white"/>
<path d="M36.2905 40.2367L38.6205 38.2091L36.0083 31.1538L36.2905 40.2367Z" fill="white"/>
<path d="M34.0385 30.9307L30.7373 40.15L33.2051 42.9252L35.7094 40.7421L35.4164 31.1382L34.0385 30.9307Z" fill="white"/>
<path d="M32.8391 11.9968L22.0383 8.69496V7.50833H24.3783V5.67917H22.3596V3.66975H24.2081V2.45996H32.2681L32.8391 11.9968ZM27.0337 3.94015H25.8267V5.00854H27.0337V3.94015ZM30.1414 5.77344H28.7635V6.60036H27.2196V8.32036H29.1636V6.98736H30.1414V5.77344Z" fill="white"/>
<path d="M15.1404 7.40966H13.5798V9.37526H15.8011V8.10428H17.2122V5.74589H15.5189V4.75854H14.0754V6.04028H15.1395L15.1404 7.40966Z" fill="white"/>
<path d="M13.6338 11.4321H11.2722V13.5259H13.6338V11.4321Z" fill="white"/>
<path d="M6.86306 7.50415H4.91406V9.22828H6.86306V7.50415Z" fill="white"/>
<path d="M16.4203 14.4915H14.3103V16.3586H16.4203V14.4915Z" fill="white"/>
<path d="M4.38112 2.96411H2.43213V4.68825H4.38112V2.96411Z" fill="white"/>
<path d="M5.28509 0.747803H4.03418V1.85422H5.28509V0.747803Z" fill="white"/>
<path d="M1.29657 1.8894H0.415039V2.66919H1.29657V1.8894Z" fill="white"/>
<path d="M17.4729 3.44375V5.00415H19.236V4.05485H21.5054V1.69067H18.835V3.44375H17.4729Z" fill="white"/>
<path d="M16.8204 1.67258H17.6281V0.5H16.3083V1.28888H15.0159V2.88154H16.8204V1.67258Z" fill="white"/>
<path d="M9.3846 10.395H12.0823V8.00856H9.91916V6.92529H8.15112V8.49066H9.3846V10.395Z" fill="white"/>
<path d="M21.2057 6.35474H18.5935V8.66599H21.2057V6.35474Z" fill="white"/>
<path d="M11.0589 0.756348H9.74487V1.919H11.0589V0.756348Z" fill="white"/>
<path d="M8.15134 1.34351H6.45801V2.84106H8.15134V1.34351Z" fill="white"/>
<path d="M11.5013 6.92268H12.9489V5.33994H11.9711V4.40966H13.6429V2.41016H11.1809V3.91268H9.74487V5.77077H11.5013V6.92268Z" fill="white"/>
<path d="M8.15382 3.9812H5.89355V5.9807H8.15382V3.9812Z" fill="white"/>
<path d="M9.97644 11.7297H8.64087V12.9064H9.97644V11.7297Z" fill="white"/>
<path d="M18.8076 20.0384L16.9441 18.1903H15.8542V17.1095L15.8111 17.0665H19.4833V15.3316H20.1482V14.1656H18.8292V15.024H17.7816V13.6166H16.3191V12.3679H14.7004V10.4031H16.5648V9.24048H18.3253V10.8042H16.9151V11.7725H18.5669V12.8029H21.3933V11.5542H20.271V9.95825H22.039V9.25784L32.4721 12.4498L18.8076 20.0384ZM25.7486 13.0906H27.4901V11.5501H25.7486V13.0906ZM21.0197 16.5323H22.4516V15.7136H24.1408V13.8572H22.0424V15.2654H21.0164L21.0197 16.5323Z" fill="white"/>
<path d="M61.8333 36.2928H54.884L53.4571 38.3337H50.8831L56.7035 30.1339C56.8695 29.8941 57.0836 29.6832 57.3335 29.5096C57.6464 29.3285 58.0175 29.2425 58.391 29.264C58.7604 29.2433 59.1281 29.3301 59.4369 29.5096C59.6884 29.6816 59.9017 29.8933 60.0677 30.1339L65.8641 38.3337H63.2759L61.8333 36.2928ZM55.9299 34.7696H60.7808L58.3536 31.2676L55.9299 34.7696Z" fill="white"/>
<path d="M72.1592 38.3432C71.5426 38.3549 70.9265 38.3008 70.3215 38.182C69.8944 38.1042 69.4921 37.9261 69.1477 37.6627C68.8505 37.4195 68.6326 37.0936 68.5219 36.7266C68.3896 36.2627 68.3286 35.7814 68.3409 35.2993V29.467H70.5622V35.2183C70.5572 35.4399 70.5846 35.6607 70.6427 35.8765C70.69 36.0444 70.7904 36.1974 70.9316 36.3173C71.0876 36.4446 71.2802 36.5323 71.4877 36.572C71.7741 36.6298 72.0679 36.6547 72.3618 36.6489H78.3183V38.3408L72.1592 38.3432Z" fill="white"/>
<path d="M83.8009 35.8071V38.3449H81.5623V29.4687H89.5956C90.1983 29.458 90.7992 29.5076 91.3902 29.6159C91.8185 29.6936 92.2178 29.864 92.554 30.1121C92.8528 30.351 93.0703 30.6603 93.179 31.0051C93.3102 31.436 93.3716 31.8817 93.3608 32.3282V33.094C93.3733 33.5386 93.3135 33.9822 93.184 34.4079C93.0811 34.7329 92.8686 35.024 92.5756 35.2406C92.2303 35.4744 91.8351 35.6256 91.4218 35.6822C90.8191 35.7747 90.2099 35.8159 89.6006 35.8054L83.8009 35.8071ZM91.1288 32.4084C91.1288 31.9313 91.0109 31.6047 90.7818 31.436C90.5519 31.2665 90.1343 31.1755 89.5359 31.1755H83.8001V34.2086H89.5624C90.1518 34.2086 90.5602 34.1284 90.7868 33.968C91.0125 33.8076 91.1188 33.4909 91.1188 33.0228V32.4084H91.1288Z" fill="white"/>
<path d="M106.332 38.3432V34.804H98.9828V38.3432H96.7441V29.467H98.9828V33.0832H106.337V29.467H108.568V38.3432H106.332Z" fill="white"/>
<path d="M122.548 36.3001H115.603L114.178 38.341H111.602L117.423 30.1412C117.589 29.9014 117.803 29.6905 118.053 29.5177C118.297 29.3523 118.65 29.272 119.11 29.272C119.48 29.2514 119.847 29.3383 120.156 29.5177C120.408 29.6897 120.621 29.9014 120.787 30.1412L126.582 38.341H124.001L122.548 36.3001ZM116.651 34.7778H121.507L119.08 31.2757L116.651 34.7778Z" fill="white"/>
</g>
<defs>
<clipPath id="clip0_10227_133">
<rect width="127" height="43" fill="white" transform="translate(0 0.5)"/>
</clipPath>
</defs>
</svg>
