<svg width="127" height="44" viewBox="0 0 127 44" fill="none" xmlns="http://www.w3.org/2000/svg">
<g clip-path="url(#clip0_10216_267)">
<path d="M50.8608 20.0489L47.9921 19.2121L43.4209 21.1884L44.6701 24.6044L50.8608 20.0489Z" fill="black"/>
<path d="M47.0848 19.0135L41.3374 17.8227L43.1801 20.7004L47.0848 19.0135Z" fill="black"/>
<path d="M55.5195 18.7035L56.401 16.7288L49.6717 16.3509L48.3843 18.7655L51.4754 19.6685L55.5195 18.7035Z" fill="black"/>
<path d="M49.1558 15.8554L48.8778 13.9857L44.6909 14.8027L46.0315 16.3193L49.1558 15.8554Z" fill="black"/>
<path d="M46.4507 16.7909L47.9033 18.4365L48.9766 16.4172L46.4507 16.7909Z" fill="black"/>
<path d="M40.5205 17.6179L33.6509 12.8862L35.9253 21.162L42.5608 20.8081L40.5205 17.6179Z" fill="black"/>
<path d="M40.8807 17.1944L47.1784 18.4943L32.8623 2.29325L33.4558 12.0757L40.8807 17.1944Z" fill="black"/>
<path d="M60.3374 18.9464L61.663 18.8472L61.678 18.1534L60.535 18.4742L60.3374 18.9464Z" fill="black"/>
<path d="M60.5283 17.9222L61.4247 17.6658L58.7079 15.3835L57.3657 16.4519L60.5283 17.9222Z" fill="black"/>
<path d="M32.5967 29.2922L33.7388 30.0802L36.6457 25.6703L35.5135 21.8333L32.5967 29.2922Z" fill="black"/>
<path d="M59.9829 18.2799L58.4448 17.5663L59.7754 18.7669L59.9829 18.2799Z" fill="black"/>
<path d="M42.1939 21.3622L36.083 21.683L37.1256 25.2272L42.1939 21.3622Z" fill="black"/>
<path d="M56.7306 16.2159L58.0072 15.1955L49.4717 13.9857L49.7498 15.8281L56.7306 16.2159Z" fill="black"/>
<path d="M56.9374 16.9627L56.1206 18.7918L58.8225 19.8834L59.4799 19.2549L56.9374 16.9627Z" fill="black"/>
<path d="M59.333 20.1663L61.0272 21.3158L59.8518 19.6752L59.333 20.1663Z" fill="black"/>
<path d="M37.4858 25.6472L43.8192 28.634L44.226 25.0766L42.9186 21.5027L37.4858 25.6472Z" fill="black"/>
<path d="M44.8113 25.1905L44.4419 28.3907L51.5041 22.5824L51.2368 20.4605L44.8113 25.1905Z" fill="black"/>
<path d="M61.981 21.9886L62.1237 22.8577L62.6475 21.8414L61.981 21.9886Z" fill="black"/>
<path d="M61.756 19.3691L60.4038 19.4733L61.8307 21.4579L62.5719 21.2934L61.756 19.3691Z" fill="black"/>
<path d="M51.7959 20.1396L52.069 22.2946L58.1318 20.1818L55.7163 19.2036L51.7959 20.1396Z" fill="black"/>
<path d="M32.9725 12.6298L19.6724 20.0026L35.3116 21.1413L32.9725 12.6298Z" fill="black"/>
<path d="M34.2983 30.2763L35.873 30.5029L43.2182 28.9524L37.0691 26.0507L34.2983 30.2763Z" fill="black"/>
<path d="M32.3169 29.7719L27.6909 36.5783L30.2865 39.4891L33.4765 30.5748L32.3169 29.7719Z" fill="black"/>
<path d="M36.2905 40.0701L38.6205 38.0425L36.0083 30.9872L36.2905 40.0701Z" fill="black"/>
<path d="M34.0385 30.7639L30.7373 39.9833L33.2051 42.7585L35.7094 40.5754L35.4164 30.9715L34.0385 30.7639Z" fill="black"/>
<path d="M32.8389 11.8301L22.0381 8.52825V7.34162H24.378V5.51246H22.3593V3.50304H24.2079V2.29325H32.2678L32.8389 11.8301ZM27.0334 3.77344H25.8265V4.84183H27.0334V3.77344ZM30.1412 5.60673H28.7633V6.43365H27.2194V8.15365H29.1634V6.82065H30.1412V5.60673Z" fill="black"/>
<path d="M15.1406 7.24303H13.5801V9.20862H15.8013V7.93764H17.2124V5.57926H15.5191V4.59191H14.0756V5.87364H15.1398L15.1406 7.24303Z" fill="black"/>
<path d="M13.634 11.2654H11.2725V13.3592H13.634V11.2654Z" fill="black"/>
<path d="M6.86306 7.33755H4.91406V9.06168H6.86306V7.33755Z" fill="black"/>
<path d="M16.4206 14.3248H14.3105V16.192H16.4206V14.3248Z" fill="black"/>
<path d="M4.38112 2.79756H2.43213V4.5217H4.38112V2.79756Z" fill="black"/>
<path d="M5.28509 0.581261H4.03418V1.68768H5.28509V0.581261Z" fill="black"/>
<path d="M1.29657 1.72272H0.415039V2.50251H1.29657V1.72272Z" fill="black"/>
<path d="M17.4727 3.27714V4.83754H19.2357V3.88824H21.5051V1.52406H18.8348V3.27714H17.4727Z" fill="black"/>
<path d="M16.8207 1.50592H17.6283V0.333344H16.3085V1.12223H15.0161V2.71488H16.8207V1.50592Z" fill="black"/>
<path d="M9.38484 10.2283H12.0826V7.84182H9.91941V6.75855H8.15137V8.32392H9.38484V10.2283Z" fill="black"/>
<path d="M21.2055 6.18803H18.5933V8.49928H21.2055V6.18803Z" fill="black"/>
<path d="M11.0591 0.589737H9.74512V1.75239H11.0591V0.589737Z" fill="black"/>
<path d="M8.15134 1.17682H6.45801V2.67438H8.15134V1.17682Z" fill="black"/>
<path d="M11.5015 6.7561H12.9492V5.17337H11.9714V4.24308H13.6431V2.24358H11.1811V3.7461H9.74512V5.6042H11.5015V6.7561Z" fill="black"/>
<path d="M8.15382 3.81466H5.89355V5.81416H8.15382V3.81466Z" fill="black"/>
<path d="M9.97669 11.563H8.64111V12.7398H9.97669V11.563Z" fill="black"/>
<path d="M18.8078 19.8717L16.9444 18.0235H15.8545V16.9428L15.8113 16.8998H19.4835V15.1649H20.1484V13.9989H18.8294V14.8573H17.7819V13.4498H16.3193V12.2012H14.7007V10.2364H16.565V9.07375H18.3256V10.6375H16.9153V11.6058H18.5671V12.6361H21.3935V11.3875H20.2713V9.79152H22.0393V9.09112L32.4724 12.283L18.8078 19.8717ZM25.7489 12.9239H27.4903V11.3833H25.7489V12.9239ZM21.02 16.3656H22.4518V15.5469H24.141V13.6905H22.0426V15.0987H21.0167L21.02 16.3656Z" fill="black"/>
<path d="M61.833 36.126H54.8837L53.4568 38.1669H50.8828L56.7032 29.9671C56.8692 29.7273 57.0834 29.5165 57.3333 29.3428C57.6462 29.1617 58.0172 29.0757 58.3908 29.0972C58.7601 29.0765 59.1279 29.1634 59.4366 29.3428C59.6881 29.5148 59.9015 29.7265 60.0675 29.9671L65.8638 38.1669H63.2757L61.833 36.126ZM55.9296 34.6029H60.7805L58.3534 31.1008L55.9296 34.6029Z" fill="black"/>
<path d="M72.1592 38.1765C71.5426 38.1881 70.9265 38.1341 70.3215 38.0152C69.8944 37.9374 69.4921 37.7594 69.1477 37.4959C68.8505 37.2527 68.6326 36.9268 68.5219 36.5599C68.3896 36.0959 68.3286 35.6147 68.3409 35.1326V29.3003H70.5622V35.0515C70.5572 35.2732 70.5846 35.4939 70.6427 35.7098C70.69 35.8776 70.7904 36.0306 70.9316 36.1505C71.0876 36.2779 71.2802 36.3655 71.4877 36.4052C71.7741 36.4631 72.0679 36.4879 72.3618 36.4821H78.3183V38.174L72.1592 38.1765Z" fill="black"/>
<path d="M83.8007 35.6405V38.1783H81.562V29.3021H89.5954C90.198 29.2914 90.799 29.341 91.39 29.4493C91.8183 29.527 92.2176 29.6974 92.5537 29.9455C92.8526 30.1844 93.07 30.4937 93.1788 30.8385C93.3099 31.2694 93.3713 31.7151 93.3606 32.1616V32.9273C93.373 33.372 93.3132 33.8156 93.1838 34.2413C93.0808 34.5663 92.8683 34.8574 92.5753 35.074C92.23 35.3078 91.8349 35.459 91.4215 35.5156C90.8189 35.6081 90.2096 35.6493 89.6004 35.6388L83.8007 35.6405ZM91.1285 32.2418C91.1285 31.7647 91.0106 31.4381 90.7815 31.2694C90.5516 31.0998 90.1341 31.0089 89.5356 31.0089H83.7999V34.042H89.5622C90.1515 34.042 90.5599 33.9618 90.7865 33.8014C91.0123 33.641 91.1186 33.3243 91.1186 32.8562V32.2418H91.1285Z" fill="black"/>
<path d="M106.332 38.1765V34.6373H98.9828V38.1765H96.7441V29.3003H98.9828V32.9164H106.337V29.3003H108.568V38.1765H106.332Z" fill="black"/>
<path d="M122.547 36.1334H115.603L114.178 38.1743H111.602L117.422 29.9746C117.588 29.7348 117.803 29.5239 118.052 29.3511C118.297 29.1857 118.65 29.1054 119.11 29.1054C119.479 29.0847 119.846 29.1716 120.156 29.3511C120.407 29.5231 120.621 29.7348 120.787 29.9746L126.581 38.1743H124.001L122.547 36.1334ZM116.651 34.6111H121.506L119.08 31.109L116.651 34.6111Z" fill="black"/>
</g>
<defs>
<clipPath id="clip0_10216_267">
<rect width="127" height="43" fill="white" transform="translate(0 0.333344)"/>
</clipPath>
</defs>
</svg>
