<svg width="202" height="203" viewBox="0 0 202 203" fill="none" xmlns="http://www.w3.org/2000/svg">
<path d="M101.092 1.28516C156.552 1.28516 201.072 45.9707 201.072 101.41C201.072 156.85 156.552 201.535 101.092 201.535C45.629 201.535 1.07227 156.85 1.07227 101.41C1.07227 45.9708 45.627 1.28541 101.092 1.28516ZM70.8574 48.4014V101.411C70.8574 118.788 84.8271 132.814 102.225 132.814C119.622 132.814 133.556 118.787 133.556 101.411C133.556 84.0349 119.622 70.009 102.225 70.0088C91.5416 70.0088 87.3506 77.5713 87.3506 77.5713V48.4004L70.8574 48.4014ZM34.6982 70.0303C17.6807 70.4587 4.1543 84.3075 4.1543 101.412C4.15442 118.788 18.1133 132.804 35.5107 132.804C46.1937 132.804 50.3701 125.262 50.3701 125.262V132.123H66.8672V101.411C66.867 84.0348 52.9082 70.0195 35.5107 70.0195L34.6982 70.0303ZM167.602 70.0195C150.204 70.0199 136.246 84.0364 136.246 101.412C136.246 118.789 150.205 132.804 167.603 132.804C182.619 132.804 195.078 122.36 198.206 108.328H180.861C178.373 113.113 173.391 116.391 167.603 116.391C159.308 116.391 152.659 109.703 152.659 101.411C152.659 93.1198 159.308 86.4316 167.603 86.4316C173.409 86.4317 178.417 89.7224 180.897 94.5312H198.206C195.091 80.4812 182.631 70.0195 167.602 70.0195ZM102.225 86.4307C110.519 86.4308 117.17 93.1208 117.17 101.412C117.17 109.704 110.519 116.393 102.225 116.394C93.9301 116.394 87.2783 109.704 87.2783 101.412C87.2785 93.1207 93.9302 86.4307 102.225 86.4307ZM35.5107 86.4326C43.8051 86.4326 50.454 93.1207 50.4541 101.412C50.4541 109.704 43.8052 116.392 35.5107 116.392C27.2163 116.392 20.5674 109.704 20.5674 101.412C20.5675 93.1208 27.2164 86.4326 35.5107 86.4326Z" fill="#EEEEEE"/>
</svg>
