<svg width="130" height="40" viewBox="0 0 130 40" fill="none" xmlns="http://www.w3.org/2000/svg">
<path fill-rule="evenodd" clip-rule="evenodd" d="M10.48 40H13.475V24H10.48V40ZM21.4587 39.76H24.1413V29.665L35.4325 40V24.24H32.7575V34.1625L21.4587 24V39.76ZM41.5563 35.885C43.0163 37.0225 44.7687 37.68 46.6475 37.68C48.4775 37.68 49.7612 37.05 49.7612 35.6588C49.7612 34.4463 48.9425 33.9713 47.5087 33.44L45.1875 32.6338C43.0475 31.8738 41.42 30.7638 41.42 28.2125C41.42 25.4837 43.8837 24 46.83 24C48.635 24 50.28 24.4537 51.565 25.2575V27.9638C50.2288 26.9762 48.7663 26.2963 46.8875 26.2963C45.27 26.2963 44.0612 26.9 44.0612 28.1588C44.0612 29.2963 44.82 29.7512 46.1562 30.2087L48.7425 31.1162C51.2488 31.9975 52.3988 33.3638 52.3988 35.6113C52.3988 38.4388 49.9112 40 46.6475 40C44.5025 40 42.6788 39.4 41.5563 38.6425V35.885ZM59.3863 40H62.38V24H59.3863V40ZM76.425 37.5788C79.8 37.5788 81.6038 35.4137 81.6038 31.9963C81.6038 28.5538 79.7988 26.3963 76.425 26.3963H73.0875V37.5788H76.425ZM70.3625 24H76.525C81.2688 24 84.3363 27.125 84.3363 31.9963C84.3363 36.8713 81.2688 40 76.525 40H70.3625V24ZM99.309 24V26.3963H92.0625V30.2463H98.561V32.615H92.0612V37.5788H99.309V40H89.3275V24H99.309ZM109.936 31.245H112.908C114.666 31.245 115.658 30.28 115.658 28.7963C115.658 27.3125 114.666 26.3462 112.908 26.3462H109.936V31.245ZM109.936 33.5075V40H107.292V24H112.958C116.188 24 118.277 25.6638 118.277 28.7963C118.277 31.475 117.118 33.0137 114.646 33.4087L120.268 40H117.26L111.818 33.5088H109.938L109.936 33.5075ZM9.4338 8.2375C10.605 7.80875 11.5175 6.5225 11.5175 4.75375C11.5175 1.80625 9.4338 0.27875 6.1 0.27875H0.5V16.7325H6.62C9.9537 16.7325 12.0375 15.0975 12.0375 12.0162C12.0375 10.2738 10.9437 8.74625 9.4338 8.2375ZM3.13 7.1925V2.69125H6.075C7.925 2.69125 8.9137 3.36125 8.9137 4.915C8.9137 6.46875 7.9237 7.1925 6.075 7.1925H3.13ZM3.13 9.4975H6.5675C8.3925 9.4975 9.3813 10.4075 9.3813 11.9088C9.3813 13.3825 8.3913 14.3212 6.5687 14.3212H3.13125V9.49625L3.13 9.4975ZM24.2562 17C28.085 17 30.6637 14.695 30.6637 10.1938V0.27875H27.955V9.87125C27.955 13.0337 26.6525 14.5088 24.2562 14.5088C21.86 14.5088 20.5588 13.0337 20.5588 9.87125V0.27875H17.85V10.1663C17.85 14.695 20.4537 17 24.2562 17ZM37.0412 15.5525C38.1613 16.3575 39.985 17 42.12 17C45.3763 17 47.85 15.3375 47.85 12.3375C47.85 9.9525 46.705 8.505 44.2038 7.5675L41.6263 6.6025C40.2975 6.12125 39.5425 5.63875 39.5425 4.4325C39.5425 3.0925 40.74 2.45 42.355 2.45C44.23 2.45 45.6888 3.1725 47.0175 4.21875V1.35C45.7412 0.49375 44.1 0.01125 42.3025 0.01125C39.36 0.01125 36.9113 1.5925 36.9113 4.48625C36.9113 7.1925 38.5263 8.37125 40.6613 9.175L42.98 10.0325C44.4125 10.595 45.22 11.105 45.22 12.3913C45.22 13.865 43.9438 14.535 42.12 14.535C40.245 14.535 38.5 13.8375 37.0412 12.6325V15.5525ZM57.5288 0.27875H54.8213V16.7313H57.5288V0.27875ZM65.2562 16.7113H67.8662V6.0075L78.8512 16.9662V0.25375H76.2487V10.775L65.2562 0V16.7113ZM95.777 0.2825V2.74625H88.745V6.70625H95.051V9.1425H88.745V14.2463H95.777V16.7362H86.09V0.2825H95.777ZM102.084 15.5412C103.204 16.3462 105.026 16.9888 107.163 16.9888C110.418 16.9888 112.893 15.3275 112.893 12.3263C112.893 9.94125 111.746 8.495 109.246 7.55625L106.667 6.5925C105.339 6.11 104.584 5.6275 104.584 4.42125C104.584 3.08125 105.781 2.43875 107.396 2.43875C109.271 2.43875 110.73 3.1625 112.059 4.2075V1.34C110.783 0.4825 109.141 0 107.344 0C104.401 0 101.952 1.58125 101.952 4.475C101.952 7.18125 103.568 8.36 105.702 9.16375L108.021 10.0212C109.454 10.5837 110.261 11.0938 110.261 12.38C110.261 13.8538 108.986 14.5238 107.161 14.5238C105.286 14.5238 103.541 13.8275 102.084 12.6213V15.5412ZM118.441 15.5412C119.561 16.3462 121.385 16.9888 123.52 16.9888C126.776 16.9888 129.25 15.3275 129.25 12.3263C129.25 9.94125 128.104 8.495 125.604 7.55625L123.025 6.5925C121.697 6.11 120.941 5.6275 120.941 4.42125C120.941 3.08125 122.14 2.43875 123.754 2.43875C125.629 2.43875 127.089 3.1625 128.416 4.2075V1.34C127.141 0.4825 125.5 0 123.702 0C120.759 0 118.311 1.58125 118.311 4.475C118.311 7.18125 119.926 8.36 122.061 9.16375L124.38 10.0212C125.812 10.5837 126.62 11.0938 126.62 12.38C126.62 13.8538 125.344 14.5238 123.52 14.5238C121.645 14.5238 119.9 13.8275 118.441 12.6213V15.5412Z" fill="white"/>
</svg>
