<svg width="105" height="85" viewBox="0 0 105 85" fill="none" xmlns="http://www.w3.org/2000/svg">
<g clip-path="url(#clip0_10284_85124)">
<path d="M105 60.8234H104.804C103.64 57.9731 102.322 55.1906 100.851 52.4845H102.143C103.164 54.4356 104.116 56.4122 105 58.4227V60.8234ZM0 11.6387C5.16923 9.90818 10.483 8.68663 15.8903 7.98253L17.4292 0H29.9016L27.1045 7.24451C30.4628 7.23603 33.8126 7.43114 37.1453 7.82984L41.0308 0H54.736L48.2065 9.89122C56.87 12.1307 65.117 15.7275 72.6328 20.5544C74.1291 21.513 75.583 22.5225 76.9943 23.5659H75.0134C66.7069 17.7295 57.3972 13.4371 47.5433 10.9177L39.5599 23.2774H33.8296V31.6926L19.6907 54.7071H15.1676V62.4012L0.680162 84.9745H0.221053L36.6182 8.91567C33.3279 8.53393 30.0121 8.35579 26.7049 8.38124L0.102024 84.9745H0M0 83.5579L15.6352 9.18713C10.3385 9.92515 5.12672 11.1806 0.0680162 12.9197H0" fill="white"/>
<path d="M43.1645 42.6951H50.8334V35.5439H43.1645V32.1337H52.4997L51.9896 24.9656H35.3597V51.2121H43.1645V42.6951ZM75.6083 51.1357H83.9997L87.8257 44.6971L91.7451 51.1442H100.332L92.0512 37.5459L99.5074 25.008H91.0054L87.8001 30.4541L84.4759 24.991H75.8293L83.5066 37.6053L75.6083 51.1357ZM65.8479 51.4242C73.2702 51.526 79.3746 45.6218 79.5022 38.2161C79.1876 30.6831 72.8196 24.8298 65.2613 25.1352C58.1451 25.4321 52.4487 31.1158 52.1512 38.2161C52.2702 45.6302 58.3917 51.5429 65.8224 51.4242H65.8479ZM63.4333 32.4561C63.4419 31.1582 64.4706 30.1063 65.7629 30.0469C67.0977 30.0724 68.1775 31.1327 68.2285 32.4561V43.5943C68.135 44.9177 66.9872 45.9102 65.6609 45.8169C64.4621 45.732 63.5184 44.7819 63.4333 43.5943V32.4561ZM44.9414 70.8079H52.8823V65.5569H44.9414V61.9855H54.6168V56.3019H38.8115V80.8433H54.7358V74.9391H44.9414V70.8079ZM79.1196 56.3019L76.0759 70.3498L73.1002 56.3019H67.8459L65.0147 70.494L62.0645 56.3019H55.7985L61.4864 80.8433H67.1997L69.9969 66.7785L72.8791 80.8433H78.4734L84.1868 56.3019H79.1196ZM99.8645 67.3892C98.2321 65.8877 96.3617 65.489 94.2617 64.8952C91.7791 64.1996 90.4103 64.1233 90.4103 62.6812C90.5123 61.6123 91.4645 60.8318 92.5358 60.9336C92.5443 60.9336 92.5528 60.9336 92.5528 60.9336C94.1342 60.8064 95.5795 61.8498 95.9451 63.3937L101.31 61.6123C100.315 57.8797 96.8463 55.3433 92.9779 55.513C87.375 55.513 83.9487 58.9486 83.9487 63.5719C83.9487 67.5674 86.2783 69.5354 90.9459 70.9267C93.7346 71.7665 95.2139 71.6986 95.2139 73.4885C95.2139 74.4301 94.3382 75.1682 92.8844 75.1682C90.9629 75.3887 89.2115 74.0739 88.8799 72.1737L82.9965 73.4631C83.9998 78.1203 87.4771 80.8857 92.8078 80.8857C95.4435 80.9536 97.9856 79.9102 99.805 78.01C101.148 76.5339 101.888 74.6083 101.871 72.6063C101.982 70.6552 101.242 68.755 99.856 67.3807H99.8645V67.3892ZM31.1767 68.6193L23.8479 56.4122H16.7402V80.8603H22.9807V66.5749L31.3467 80.8264H37.2641V56.3783H31.1937L31.1767 68.6193Z" fill="white"/>
</g>
<defs>
<clipPath id="clip0_10284_85124">
<rect width="105" height="85" fill="white"/>
</clipPath>
</defs>
</svg>
