<svg width="116" height="97" viewBox="0 0 116 97" fill="none" xmlns="http://www.w3.org/2000/svg">
<path d="M22.1075 17.215C18.1745 20.7752 16.7431 28.842 23.8328 33.5577L52.116 52.9621L38.4023 21.5439C35.5287 14.1299 27.6674 12.5132 22.1075 17.215Z" fill="white"/>
<path d="M46.4535 1.93985C41.8562 2.03338 34.9529 7.50824 38.0251 15.8683L52.2083 49.3187L57.1924 14.1353C58.3458 5.39298 51.7299 1.35733 46.4535 1.93985Z" fill="white"/>
<path d="M59.407 12.7927H62.0888C62.0888 12.7927 63.5211 12.7927 63.716 13.4682C62.6606 14.3301 59.7875 14.438 60.1689 19.042L64.6778 49.3133L78.7645 15.7749C81.6459 8.28642 75.5977 2.03244 70.2327 1.84122C69.9823 1.82317 69.7306 1.80859 69.4707 1.80859C64.6551 1.80842 59.1368 5.30806 59.407 12.7927Z" fill="white"/>
<path d="M78.1971 21.8282L64.873 52.8693L93.1483 33.3626C99.666 28.7395 98.6146 21.3484 94.9663 17.6952C93.4369 15.9758 90.6285 14.6475 87.6535 14.6475C84.1389 14.6469 80.3774 16.5111 78.1971 21.8282Z" fill="white"/>
<path d="M89.9826 37.7794L63.4287 56.3269H96.1238C102.832 56.3269 107.142 49.4104 105.226 43.0637C103.943 39.0746 100.145 35.943 95.738 35.9385C93.8829 35.9393 91.9155 36.4981 89.9826 37.7794Z" fill="white"/>
<path d="M21.3459 56.3271H53.5586L26.9983 37.7797C20.8625 33.8372 13.9627 36.144 11.4719 42.6862C9.36062 50.1755 14.6321 56.3271 21.3459 56.3271Z" fill="white"/>
<path d="M57.02 81.7038H62.9958C64.3694 81.7902 66.8045 82.9896 66.8045 85.8301C66.8045 88.801 64.2773 89.9997 62.908 90.135H57.02V81.7038ZM56.9289 68.4776H61.8476C63.5288 68.5684 65.5169 69.8108 65.5169 72.1175C65.5169 74.3801 64.0138 75.888 62.0692 76.1568H56.9289V68.4776ZM50.2041 62.9736V95.6335H66.051C69.8123 95.6335 74.2835 91.8637 74.2835 86.9377C74.2835 81.7909 70.9212 79.2632 68.7937 78.2418C68.7937 78.2418 72.6892 75.9791 72.516 71.0965C72.3388 64.5286 66.2716 62.9736 64.1915 62.9736H50.2041Z" fill="white"/>
<path d="M25.8982 95.6335V76.8224L46.4382 96.8759V62.9737H39.5361V81.3035L18.9912 61.6455V95.6335H25.8982Z" fill="white"/>
<path d="M75.3936 78.9493C75.5667 89.2777 82.9877 96.9995 92.5277 96.9995C94.7896 96.9995 97.1726 96.5714 99.608 95.633V88.9783C97.6779 90.1578 95.5302 90.7264 93.4258 90.7264C87.6527 90.7264 82.2054 86.4544 82.4308 78.6842C82.8199 72.3811 87.98 68.0288 93.5411 68.0288C95.5775 68.0288 97.6721 68.6155 99.608 69.8971V63.4208C97.3508 62.5058 95.1071 62.0967 92.9459 62.0967C83.4298 62.0965 75.5763 70.1236 75.3936 78.9493Z" fill="white"/>
</svg>
