<svg width="188" height="55" viewBox="0 0 188 55" fill="none" xmlns="http://www.w3.org/2000/svg">
<mask id="mask0_10281_85067" style="mask-type:luminance" maskUnits="userSpaceOnUse" x="0" y="0" width="188" height="55">
<path d="M188 0H0V55H188V0Z" fill="white"/>
</mask>
<g mask="url(#mask0_10281_85067)">
<path d="M9.55874 22.7549C9.55874 26.0058 12.6207 26.8115 19.1483 28.9787C28.4317 32.0212 32.4401 35.3553 32.4401 42.6766C32.4401 49.9979 25.8707 54.9853 16.7405 54.9853C11.7439 54.9853 7.59632 53.5961 4.84052 53.5961C3.43885 53.6176 2.09496 54.1571 1.06872 55.1105L0.275391 42.0098H0.42849C4.70134 49.8312 10.4495 53.8045 16.7544 53.8045C20.1643 53.8045 22.7809 52.2901 22.7809 49.0949C22.7809 45.5524 19.7607 44.7605 14.5414 43.024C5.48075 40.1343 0.331063 36.4251 0.331063 29.1316C0.331063 22.2548 7.52669 17.5592 15.1399 17.5592C19.705 17.5592 22.6139 19.2263 25.2166 19.2263C26.7768 19.1882 28.2663 18.5687 29.392 17.4897V29.1454H29.2528C25.9125 22.8522 20.1226 18.7956 15.1121 18.7956C12.1893 18.7817 9.55874 20.2265 9.55874 22.7549Z" fill="white"/>
<path d="M77.6457 51.4166C75.0919 53.6787 71.7758 54.8944 68.3625 54.8202C61.9876 54.8202 58.9399 52.2918 58.216 48.3047C58.1378 47.8034 58.0909 47.2976 58.0766 46.7904C56.7683 51.6388 52.6348 54.6118 46.483 54.6118C40.8323 54.6118 35.6826 51.7222 35.6826 45.4984C35.6826 35.607 46.0934 35.7737 50.9925 34.3845C59.7746 32.0644 58.7867 25.3961 58.7867 25.3961C58.7867 22.3536 56.7269 18.6722 53.0385 18.6722C50.06 18.6722 48.3202 20.9922 48.3202 24.0208C48.3202 29.7861 53.0385 28.6469 53.7205 28.4802C52.7627 30.0337 51.4334 31.3255 49.8519 32.2396C48.2705 33.1538 46.4864 33.6616 44.6598 33.7176C40.6792 33.7176 36.9213 31.2309 36.9213 27.7439C36.9213 20.7978 43.9639 17.3663 53.3864 17.3663C65.9125 17.3663 72.1617 20.9783 72.1617 30.1056C72.1617 34.0789 72.0227 38.441 72.0227 43.7758C72.0227 48.6936 72.3844 51.3749 76.0871 51.3749C76.5965 51.3966 77.1065 51.3499 77.6038 51.236V51.3749L77.6457 51.4166ZM55.2373 35.0652C51.1734 35.9404 49.5868 38.7606 49.5868 43.3173C49.5868 46.7904 50.742 49.2494 53.3586 49.2494C56.4761 49.2494 57.7844 45.9985 57.8544 42.4421V34.4123L55.2373 35.0652Z" fill="white"/>
<path d="M94.9046 46.193C94.9046 50.972 95.0436 51.75 98.0918 53.9311V54.07H77.2145V53.9311C80.2627 51.7639 80.4016 50.9581 80.4016 46.193V7.91951C80.4016 2.93211 79.5388 1.76516 76.1289 0.0286114V-0.110321H94.9046V46.2069V46.193Z" fill="white"/>
<path d="M99.79 36.0655C99.79 24.632 109.143 17.3941 120.236 17.3941C131.328 17.3941 140.681 24.632 140.681 36.0655C140.681 47.4989 131.259 54.8063 120.236 54.8063C109.213 54.8063 99.79 47.4989 99.79 36.0655ZM125.385 36.0655C125.385 24.2708 124.23 18.6305 120.236 18.6305C116.241 18.6305 115.086 24.2708 115.086 36.0655C115.086 47.8601 116.241 53.6393 120.236 53.6393C124.23 53.6393 125.371 47.9296 125.371 36.0655H125.385Z" fill="white"/>
<path d="M160.486 18.1165V27.3827C162.226 20.9366 166.861 17.3941 173.012 17.3941C181.127 17.3941 184.537 23.1872 184.537 29.8973V46.1791C184.537 50.9581 184.676 51.7361 187.724 53.9172V54.0561H166.847V53.9172C169.895 51.75 170.034 50.9442 170.034 46.1791V29.2721C170.034 26.3824 168.642 24.1319 165.761 24.1319C162.643 24.1319 160.472 26.5908 160.472 32.7452V46.2069C160.472 50.9859 160.612 51.7639 163.659 53.945V54.0839H142.783V53.945C145.83 51.7778 145.97 50.972 145.97 46.2069V26.1602C145.97 21.0895 145.607 20.367 142.268 18.2693V18.1304H160.486V18.1165Z" fill="white"/>
</g>
</svg>
