<svg width="148" height="34" viewBox="0 0 148 34" fill="none" xmlns="http://www.w3.org/2000/svg">
<path d="M147.975 33.3148V24.8315H129.945L148 6.85092L141.718 0.568848L123.713 18.5247V0.568848H115.229V33.3148H147.975Z" fill="white"/>
<path d="M11.5254 0C19.3161 0 23.3723 4.57552 23.3723 11.3275V12.3168H16.1009V11.649C16.1009 8.38434 14.6417 6.35627 11.4759 6.35627C8.31014 6.35627 8.03808 7.4445 8.03808 9.37364C8.03808 11.3028 8.92846 11.8222 10.635 12.391L15.4579 13.9986C20.8496 15.7546 23.8669 18.4258 23.8669 23.7185C23.8669 29.0113 18.9204 34.0073 12.3416 34.0073C5.76269 34.0073 0 29.8275 0 22.7045V21.7647H7.32084V22.4324C7.32084 25.8208 9.02739 27.6757 12.3168 27.6757C15.6062 27.6757 15.9525 26.637 15.9525 24.7078C15.9525 22.7787 15.0127 22.1604 13.0341 21.5421L8.03808 19.9839C3.53676 18.5989 0.321523 16.0514 0.321523 10.2887C0.321523 4.52606 4.67445 0 11.5254 0Z" fill="white"/>
<path d="M40.8333 16.373L50.5038 33.3642H41.7237L36.2578 23.3475L30.9156 33.3642H22.457L32.1275 16.645L23.1248 0.618317H31.9049L36.6783 9.81883L41.4516 0.618317H49.8607L40.8086 16.3482L40.8333 16.373Z" fill="white"/>
<path d="M60.6937 0C68.4844 0 72.5406 4.57552 72.5406 11.3275V12.3168H65.2692V11.649C65.2692 8.38434 63.81 6.35627 60.6442 6.35627C57.4784 6.35627 57.2064 7.4445 57.2064 9.37364C57.2064 11.3028 58.0967 11.8222 59.8033 12.391L64.6261 13.9986C70.0178 15.7546 73.0352 18.4258 73.0352 23.7185C73.0352 29.0113 68.0887 34.0073 61.5098 34.0073C54.931 34.0073 49.1436 29.8522 49.1436 22.7292V21.7894H56.4644V22.4572C56.4644 25.8455 58.1709 27.7005 61.4604 27.7005C64.7498 27.7005 65.0961 26.6617 65.0961 24.7326C65.0961 22.8034 64.1562 22.1851 62.1776 21.5668L57.1816 20.0086C52.6556 18.5989 49.4403 16.0514 49.4403 10.2887C49.4403 4.52606 53.818 0 60.6937 0Z" fill="white"/>
<path d="M95.7895 0.618317L98.9058 21.6657H99.1037L102.542 0.618317H110.184L104.05 33.3395H94.9486L91.8818 12.3416H91.6839L88.6171 33.3395H79.5155L73.3818 0.618317H81.5436L84.9814 21.6657H85.1793L88.2956 0.618317H95.7648H95.7895Z" fill="white"/>
<path d="M108.477 33.4879C107.538 33.4879 106.746 32.7459 106.746 31.7319C106.746 30.7179 107.538 29.9759 108.477 29.9759C109.417 29.9759 110.209 30.7179 110.209 31.7319C110.209 32.7459 109.417 33.4879 108.477 33.4879ZM108.477 30.2727C107.686 30.2727 107.068 30.8663 107.068 31.7319C107.068 32.5975 107.711 33.1911 108.477 33.1911C109.244 33.1911 109.912 32.5728 109.912 31.7319C109.912 30.891 109.269 30.2727 108.477 30.2727ZM108.898 32.647C108.848 32.5975 108.824 32.5233 108.824 32.3008C108.824 32.0782 108.725 32.0287 108.527 32.0287H108.23V32.647H107.76V30.8168H108.65C109.12 30.8168 109.368 31.0394 109.368 31.3856C109.368 31.7319 109.195 31.8308 108.972 31.8556C109.17 31.905 109.294 32.004 109.318 32.2266C109.318 32.4986 109.343 32.5728 109.417 32.647H108.923H108.898ZM108.527 31.6577C108.749 31.6577 108.873 31.5835 108.873 31.4104C108.873 31.2373 108.749 31.1631 108.527 31.1631H108.23V31.633H108.527V31.6577Z" fill="white"/>
</svg>
