<svg width="1000" height="751" viewBox="0 0 1000 751" fill="none" xmlns="http://www.w3.org/2000/svg">
<g clip-path="url(#clip0_10276_84535)">
<path d="M500.031 169.943C412.524 169.98 328.545 205.083 266.243 267.665C203.94 330.248 168.318 415.284 167.075 504.398H294.866C295.868 449.64 317.918 397.466 356.281 359.087C394.643 320.707 446.256 299.184 500.031 299.141C553.816 299.168 605.444 320.684 643.819 359.066C682.195 397.447 704.253 449.629 705.255 504.398H832.921C831.678 415.296 796.065 330.27 733.777 267.689C671.489 205.108 587.527 169.998 500.031 169.943Z" fill="white"/>
<path d="M500.031 0C368.271 0.0396165 241.851 53.0471 148.256 147.499C54.6609 241.951 1.45606 370.212 0.208008 504.398H130.402C131.647 405.372 171.13 310.829 240.308 241.231C309.486 171.633 402.792 132.58 500.031 132.525C597.283 132.561 690.607 171.605 759.801 241.205C828.994 310.805 868.488 405.36 869.733 504.398H999.788C998.54 370.223 945.345 241.973 851.764 147.523C758.183 53.0727 631.78 0.0573329 500.031 0Z" fill="white"/>
<path d="M500.031 337.888C456.344 337.928 414.405 355.369 383.176 386.483C351.947 417.597 333.905 459.917 332.906 504.399H667.215C666.216 459.906 648.166 417.578 616.924 386.462C585.683 355.346 543.729 337.912 500.031 337.888Z" fill="white"/>
<path d="M0 549.33V595.463H54.1058V746.241H106.929V595.463H161.035V549.33H0Z" fill="white"/>
<path d="M682.584 549.319L608.507 745.516H666.769L676.004 718.433H752.84L762.075 745.516H820.337L746.26 549.319C725.035 549.319 703.809 549.319 682.584 549.319ZM714.422 605.763L737.487 673.407H691.357L714.422 605.763Z" fill="white"/>
<path d="M798.855 549.322L874.257 667.281V745.516H924.967V667.281L1000 549.323H942.144L899.685 620.837L857.224 549.323L798.855 549.322Z" fill="white"/>
<path d="M415.396 549.789V745.733H502.636C631.209 747.699 647.705 551.924 502.636 549.789H415.396ZM467.964 595.194H505.915C570.534 595.194 562.721 700.841 505.915 700.841H467.964V595.194Z" fill="white"/>
<path d="M279.173 546.651C211.439 546.651 174.166 591.901 174.166 647.718C174.166 703.536 215.538 750.191 280.197 750.191C344.342 750.191 384.18 703.536 384.18 647.718C384.18 591.9 344.343 546.651 279.173 546.651ZM279.898 592.707C312.495 592.707 332.422 617.478 332.422 648.036C332.422 678.593 312.496 704.136 280.411 704.136C248.069 704.136 227.376 678.593 227.376 648.036C227.376 617.478 246.018 592.707 279.898 592.707Z" fill="white"/>
</g>
<defs>
<clipPath id="clip0_10276_84535">
<rect width="1000" height="750.191" fill="white"/>
</clipPath>
</defs>
</svg>
