<svg width="181" height="40" viewBox="0 0 181 40" fill="none" xmlns="http://www.w3.org/2000/svg">
<g clip-path="url(#clip0_2186_1462)">
<g clip-path="url(#clip1_2186_1462)">
<path d="M27.6994 21.474C27.6994 28.9154 21.667 34.9479 14.224 34.9479C6.78249 34.9479 0.75 28.9154 0.75 21.474C0.75 14.0325 6.78249 8 14.224 8C21.667 8 27.6994 14.0325 27.6994 21.474Z" fill="#white"/>
<path d="M40.292 27.2562C38.1711 27.2562 36.9874 25.9584 36.9874 23.6692V12.0488H31.73V23.6391C31.73 28.7283 34.8364 31.6364 40.292 31.6364C45.7477 31.6364 48.8541 28.7283 48.8541 23.6391V12.0488H43.5967V23.6692C43.5967 25.9584 42.413 27.2562 40.292 27.2562Z" fill="white"/>
<path d="M58.1333 31.6377C62.7418 31.6377 65.764 29.1802 65.764 25.5331C65.764 22.9314 64.2079 20.9246 60.08 19.795L58.638 19.3985C56.5771 18.8337 55.814 18.2148 55.814 17.3075C55.814 16.3462 56.6612 15.8114 58.1573 15.8114C59.9719 15.8114 61.9186 16.8268 63.2765 17.9865L65.9022 14.6818C63.8413 12.8132 61.0714 11.6836 58.1333 11.6836C53.6931 11.6836 50.5867 14.087 50.5867 17.7882C50.5867 20.6422 52.4493 22.5108 55.8982 23.4121L57.0878 23.7245C59.6595 24.4035 60.5367 24.9142 60.5367 25.9297C60.5367 26.9751 59.6294 27.5099 58.1033 27.5099C55.8441 27.5099 53.9755 26.6927 52.4493 25.3348L49.9077 28.5313C52.0287 30.5081 54.9969 31.6377 58.1333 31.6377Z" fill="white"/>
<path d="M80.7685 31.2699H86.116L79.0741 12.0488H72.9695L65.9336 31.2699H71.1309L72.3506 27.6828H79.5548L80.7685 31.2699ZM73.6785 23.7773L75.9677 17.0539L78.2269 23.7773H73.6785Z" fill="white"/>
<path d="M96.2578 31.2699H101.515V16.2908H107.229V12.0488H90.5498V16.2908H96.2578V31.2699Z" fill="white"/>
<path d="M117.078 31.6377C122.84 31.6377 127.052 27.5399 127.052 21.6877C127.052 15.8415 122.84 11.6836 117.078 11.6836C111.31 11.6836 107.098 15.8415 107.098 21.6877C107.098 27.5399 111.31 31.6377 117.078 31.6377ZM117.078 27.2876C114.338 27.2876 112.439 25.0224 112.439 21.6877C112.439 18.353 114.338 16.0397 117.078 16.0397C119.818 16.0397 121.71 18.353 121.71 21.6877C121.71 25.0224 119.818 27.2876 117.078 27.2876Z" fill="white"/>
<path d="M128.87 31.2699H136.44C142.124 31.2699 146.168 27.3103 146.168 21.6624C146.168 16.0084 142.124 12.0488 136.44 12.0488H128.87V31.2699ZM134.043 27.118V16.2067H136.44C139.21 16.2067 140.911 18.3817 140.911 21.6624C140.911 24.937 139.21 27.118 136.44 27.118H134.043Z" fill="white"/>
<path d="M160.032 31.2699H165.38L158.338 12.0488H152.233L145.197 31.2699H150.395L151.614 27.6828H158.818L160.032 31.2699ZM152.942 23.7773L155.231 17.0539L157.491 23.7773H152.942Z" fill="white"/>
<path d="M173.942 24.3481L180.75 12.0488H174.819L171.286 19.6796L167.723 12.0488H161.787L168.601 24.3481V31.2699H173.942V24.3481Z" fill="white"/>
</g>
</g>
<defs>
<clipPath id="clip0_2186_1462">
<rect width="180" height="40" fill="white" transform="translate(0.5)"/>
</clipPath>
<clipPath id="clip1_2186_1462">
<rect width="180" height="26.9479" fill="white" transform="translate(0.75 8)"/>
</clipPath>
</defs>
</svg>
