<svg width="356" height="176" viewBox="0 0 356 176" fill="none" xmlns="http://www.w3.org/2000/svg">
<path d="M221.354 123.878C221.354 126.99 218.319 129.191 215.13 130.937C212.853 129.039 210.424 126.382 210.424 123.574C210.424 120.462 213.384 118.64 215.889 118.64C218.622 118.64 221.354 120.462 221.354 123.878ZM216.041 132.455C218.774 135.415 221.81 138.375 225.681 139.893V140.804C222.721 140.804 221.583 141.791 221.583 144.751V162.513C221.583 164.41 222.721 165.473 224.011 165.473C225.074 165.473 225.757 164.866 226.895 164.106L227.275 164.866L216.345 174.05C210.272 170.179 210.197 165.853 210.197 163.272V144.751C210.197 142.398 210.197 140.652 208.603 140.652C207.919 140.652 206.781 141.26 206.098 141.867L205.414 141.108L216.041 132.455Z" fill="white"/>
<path d="M231.827 144.75C231.827 142.093 230.613 141.106 229.17 141.106C228.336 141.106 227.349 141.941 226.817 142.549L226.21 141.562L236.229 132.454C239.949 134.503 243.136 136.628 243.213 141.562L253.536 132.53C257.255 134.579 260.443 136.704 260.519 141.638L272.967 132.454C275.017 135.414 278.052 138.374 281.924 139.892V140.803C278.963 140.803 277.825 141.79 277.825 144.75V162.511C277.825 164.409 278.963 165.472 280.254 165.472C281.316 165.472 281.999 164.864 283.139 164.105L283.518 164.864L272.587 174.049C266.516 170.254 266.439 165.927 266.439 163.347V143.763C266.439 142.397 266.06 140.651 264.618 140.651C264.011 140.651 263.327 140.955 262.796 141.334L260.519 142.928V163.422C260.519 164.864 261.126 165.775 262.644 165.852V166.762C258.773 167.825 256.192 170.937 254.902 174.049C252.398 170.558 249.285 167.749 246.173 166.762V165.852H247.084C248.602 165.852 249.134 164.333 249.134 161.677V142.701C249.134 140.955 248.146 140.575 247.54 140.575C246.856 140.575 246.097 140.879 245.49 141.258L243.213 142.852V163.422C243.213 164.864 243.82 165.775 245.338 165.852V166.762C241.467 167.825 238.886 170.937 237.596 174.049C235.091 170.558 231.979 167.749 227.956 166.762V165.852H229.17C231.296 165.852 231.827 164.561 231.827 161.677V144.75Z" fill="white"/>
<path d="M301.427 150.367L294.292 137.464H294.14C294.065 142.473 293.913 147.483 293.913 151.43C293.913 153.403 293.989 154.239 294.14 155.073L301.427 150.367ZM311.143 145.813L294.368 156.44C295.507 160.994 299.53 164.941 304.767 164.941C307.272 164.941 309.701 162.967 311.599 161.829L312.129 162.664C307.272 166.383 302.035 169.723 297.48 174.05C288.068 170.558 282.982 166.307 282.982 155.68C282.982 143.232 283.818 140.575 290.877 137.54L302.794 132.454L311.143 145.813Z" fill="white"/>
<path d="M327.017 152.184C330.9 152.184 334.707 148.378 336.154 145.18L336.001 145.028C334.935 145.789 333.336 146.094 331.89 146.094C327.778 146.094 323.667 143.429 321.002 140.459C319.86 140.993 319.631 142.363 319.631 143.505C319.631 147.54 322.602 152.184 327.017 152.184ZM328.921 153.555C324.733 153.555 320.621 157.133 318.947 160.941C324.81 160.941 330.29 163.3 335.239 166.422C336.077 165.356 336.305 163.91 336.305 162.616C336.305 158.047 333.945 153.555 328.921 153.555ZM310.647 171.904C313.465 168.25 316.053 164.291 318.033 160.103C314.302 158.276 311.409 155.687 311.409 151.196C311.409 142.059 323.286 139.927 326.484 132.313C328.389 134.597 330.909 136.261 333.87 136.501C336.457 136.71 342.307 135.978 341.646 130.945C341.646 130.945 342.448 130.633 342.454 130.659C342.687 131.738 342.892 132.835 342.892 134.043C342.892 141.058 337.828 142.211 337.067 145.637C341.179 146.399 344.529 150.052 344.529 154.317C344.529 163.3 337.067 163.529 329.682 174.645C326.636 172.513 319.022 170.078 315.444 170.078C313.541 170.078 312.551 170.839 311.637 172.437L310.647 171.904Z" fill="white"/>
<path d="M175.335 145.285L192.61 134.312L192.801 134.407L192.806 136.754V150.738C192.806 154.101 190.306 156.823 187.396 158.816L178.118 164.71L177.716 163.753C177.716 163.753 182.195 160.94 182.195 160.902C182.195 160.853 182.185 142.153 182.185 142.153L175.908 146.14L175.335 145.285Z" fill="white"/>
<path d="M198.13 122.984C201.968 123.876 202.983 119.126 196.141 119.126C196.127 119.056 196.069 118.494 196.051 118.426C196.051 118.426 199.62 117.502 202.193 118.192C204.811 118.895 207.81 121.081 207.81 125.855C207.81 130.983 201.733 135.857 193.264 133.422C184.928 131.027 179.157 129.427 176.253 128.557C171.014 126.988 169.134 132.802 173.446 134.67C173.446 134.67 173.141 135.255 173.085 135.385C169.59 134.81 166.224 131.17 166.256 127.061C166.289 122.966 167.934 121.174 170.09 119.78C171.881 118.622 174.886 117.353 180.86 118.261C183.6 118.677 196.092 122.51 198.13 122.984Z" fill="white"/>
<path d="M197.143 123.927V169.457H198.171V123.913L197.143 123.927Z" fill="white"/>
<path d="M184.09 131.358C184.142 131.534 184.148 132.275 184.148 132.275C174.373 137.105 172.169 159.936 184.431 164.253C192.855 167.218 202.492 165.398 206.093 154.975C206.323 154.994 207.099 154.98 207.099 154.98C206.984 156.302 204.227 175.647 185.906 175.115C168.163 174.602 164.812 160.629 164.812 153.726C164.812 147.401 168.312 135.282 184.09 131.358Z" fill="white"/>
<path d="M23.6221 84.7824C23.6221 84.1194 24.7691 83.1084 26.2371 83.1084C27.7201 83.1084 28.8391 84.1514 28.8391 84.7824V86.4994C28.8391 85.6123 27.7761 84.1194 26.2371 84.1194C24.7831 84.1194 23.6221 85.6123 23.6221 86.4994V84.7824Z" fill="white"/>
<path d="M28.8391 78.5598C28.8391 79.2228 27.7061 80.2338 26.2381 80.2338C24.7551 80.2338 23.6221 79.1908 23.6221 78.5598V76.8428C23.6221 77.7299 24.6991 79.2228 26.2381 79.2228C27.6921 79.2228 28.8391 77.7299 28.8391 76.8428V78.5598Z" fill="white"/>
<path d="M44.5967 84.7824C44.5967 84.1194 45.7437 83.1084 47.2117 83.1084C48.6947 83.1084 49.8137 84.1514 49.8137 84.7824V86.4994C49.8137 85.6123 48.7507 84.1194 47.2117 84.1194C45.7577 84.1194 44.5967 85.6123 44.5967 86.4994V84.7824Z" fill="white"/>
<path d="M49.8137 78.5598C49.8137 79.2228 48.6807 80.2338 47.2127 80.2338C45.7297 80.2338 44.5967 79.1908 44.5967 78.5598V76.8428C44.5967 77.7299 45.6737 79.2228 47.2127 79.2228C48.6667 79.2228 49.8137 77.7299 49.8137 76.8428V78.5598Z" fill="white"/>
<path d="M46.9024 108.975C50.5564 106.016 61.8954 101.42 61.8954 96.0969L61.9034 72.8159C61.9034 70.499 62.9944 67.4559 66.7014 67.4559V66.5399C61.8964 63.5239 58.3794 59.6489 56.4354 56.855C52.3584 61.518 49.9734 62.97 44.4974 67.27L44.5294 68.9389C45.9344 67.4089 47.2454 66.431 48.8974 67.5839C49.8054 68.2168 49.7634 70.9809 49.7494 73.8039V106.387L40.9314 98.696L40.9494 67.476C40.9494 60.7491 36.5274 58.033 34.8254 56.8271C31.7494 60.503 27.6314 63.7771 23.5744 67.194C23.5734 67.0251 23.5614 68.888 23.5744 68.872C24.7234 67.399 26.4834 66.4311 27.9094 67.585C28.6914 68.217 28.7754 70.693 28.7754 73.083V103.534C28.7754 103.534 41.5714 112.148 42.5594 113.161C42.5734 113.174 44.8944 110.601 46.9024 108.975Z" fill="white"/>
<path d="M20.6488 113.211C23.1078 109.871 31.5028 102.765 31.5028 102.765C31.2328 102.387 30.7768 101.738 30.7768 101.738C30.2238 102.284 28.5848 103.775 27.5278 104.643C27.5278 104.643 26.9788 103.687 26.7288 103.379C25.0738 101.335 22.6618 99.5356 19.9368 98.7206L19.9348 67.3955C19.9368 60.7025 15.1788 57.9735 13.3838 56.8096C10.4808 60.1276 4.95184 64.5616 0.506836 68.2726L1.19283 69.1486C2.29383 68.2336 3.86884 66.8456 5.32784 67.2736C7.93284 68.0376 7.77784 72.6736 7.79284 73.6346L7.82684 98.4246C0.569836 101.42 1.24483 107.019 1.98383 109.489C2.56283 111.427 5.11584 114.65 9.19784 114.951L9.29284 114.048C8.04984 113.846 6.47083 113.324 6.47083 111.304C6.47083 107.905 10.5168 107.17 11.9008 107.17C16.5048 107.17 19.2838 111.111 20.6488 113.211Z" fill="white"/>
<path d="M43.6865 56.9521V104.192H44.6635V56.9502L43.6865 56.9521Z" fill="white"/>
<path d="M23.661 56.8867H22.6611V104.752H23.661V56.8867Z" fill="white"/>
<path d="M114.182 91.3087C118.065 91.3087 121.872 87.5027 123.319 84.3047L123.166 84.1527C122.1 84.9137 120.501 85.2186 119.055 85.2186C114.943 85.2186 110.832 82.5537 108.167 79.5837C107.025 80.1176 106.796 81.4876 106.796 82.6296C106.796 86.6646 109.767 91.3087 114.182 91.3087ZM116.086 92.6797C111.898 92.6797 107.786 96.2577 106.112 100.066C111.975 100.066 117.455 102.425 122.404 105.547C123.242 104.481 123.47 103.035 123.47 101.741C123.47 97.1717 121.11 92.6797 116.086 92.6797ZM97.8115 111.029C100.63 107.375 103.218 103.416 105.198 99.2277C101.467 97.4007 98.5735 94.8117 98.5735 90.3207C98.5735 81.1837 110.451 79.0517 113.649 71.4378C115.553 73.7217 118.074 75.3858 121.035 75.6258C123.622 75.8348 129.472 75.1027 128.811 70.0698C128.811 70.0698 129.613 69.7578 129.619 69.7838C129.852 70.8628 130.057 71.9598 130.057 73.1678C130.057 80.1828 124.993 81.3358 124.232 84.7618C128.344 85.5238 131.694 89.1767 131.694 93.4417C131.694 102.425 124.232 102.654 116.847 113.77C113.801 111.638 106.187 109.203 102.609 109.203C100.706 109.203 99.7155 109.964 98.8015 111.562L97.8115 111.029Z" fill="white"/>
<path d="M83.3792 83.0655C81.1022 82.0784 78.8252 79.9525 77.0032 78.2835V102.192C77.0032 104.318 77.4592 105.836 78.9012 105.836C79.5842 105.836 80.1162 105.608 80.4952 105.304L83.3792 103.179V83.0655ZM65.6182 85.8735C65.6182 82.2295 67.1362 80.6364 71.3862 78.9665C77.6112 76.5374 81.7852 73.8804 84.6702 71.6035C87.4022 74.8675 93.2472 78.7385 99.0162 79.9525V80.8635C96.1312 80.8635 94.7652 81.9265 94.7652 84.6585V99.9915C94.7652 102.117 94.9922 105.077 97.0422 105.077C97.9532 105.077 98.5602 104.545 99.9262 103.862L100.382 104.697C96.7392 107.279 93.3992 110.087 90.3622 113.2C87.1752 110.922 83.7592 108.113 83.5312 104.545C79.7362 107.202 76.0922 110.087 72.6772 113.2C66.3772 109.479 65.6182 107.279 65.6182 102.724V85.8735Z" fill="white"/>
<path d="M134.843 74.489C134.843 69.555 132.186 63.483 130.137 61.889L130.972 61.0539C132.338 62.42 134.008 65.1519 134.767 67.885H134.919C135.981 60.37 144.407 57.79 154.35 57.79H154.805V59.156H153.136C147.215 59.156 146.229 63.331 146.229 68.796V80.713L158.677 71.605C163.079 76.918 163.99 79.043 163.99 84.205V98.9301C163.99 109.556 162.016 116.995 153.212 123.295C149.72 125.8 145.773 127.698 141.977 129.747L141.446 128.684C149.113 125.268 152.604 120.639 152.604 106.976V84.5839C152.604 82.1549 152.301 79.726 150.403 79.726C149.644 79.726 149.113 80.03 148.734 80.3329L146.229 82.1549V102.042C146.229 104.091 146.683 105.306 148.126 105.306C148.809 105.306 149.72 104.926 150.176 104.471L150.479 105.458C146.912 107.583 143.572 110.239 140.612 113.2C138.107 109.936 134.995 107.355 130.972 106.141V105.23C134.312 105.306 134.843 103.864 134.843 100.828V74.489Z" fill="white"/>
<path d="M181.223 63.026C181.223 66.1381 178.188 68.339 174.999 70.0851C172.722 68.187 170.293 65.53 170.293 62.7221C170.293 59.61 173.253 57.7881 175.758 57.7881C178.491 57.7881 181.223 59.61 181.223 63.026ZM175.91 71.603C178.643 74.563 181.679 77.523 185.55 79.042V79.952C182.59 79.952 181.452 80.9391 181.452 83.899V101.661C181.452 103.559 182.59 104.621 183.88 104.621C184.943 104.621 185.626 104.014 186.764 103.255L187.144 104.014L176.214 113.199C170.141 109.327 170.066 105.001 170.066 102.42V83.8991C170.066 81.5461 170.066 79.8001 168.472 79.8001C167.788 79.8001 166.65 80.4081 165.967 81.0151L165.283 80.2561L175.91 71.603Z" fill="white"/>
<path d="M202.931 102.572C202.931 104.014 203.538 104.925 205.057 105.001V105.912C201.185 106.974 198.605 110.087 197.315 113.199C194.81 109.708 191.698 106.899 187.675 105.912V105.001H188.889C191.014 105.001 191.546 103.712 191.546 100.827V83.9004C191.546 81.2434 190.331 80.2564 188.889 80.2564C188.054 80.2564 187.067 81.0915 186.536 81.6994L185.929 80.7125L195.948 71.6035C199.668 73.6535 202.855 75.7785 202.931 80.7125L215.38 71.6035C217.429 74.5644 220.465 77.5245 224.336 79.0425V79.9525C221.376 79.9525 220.237 80.9394 220.237 83.9005V101.131C220.237 103.56 221.376 104.622 222.666 104.622C223.728 104.622 224.411 104.015 225.551 103.256L225.93 104.015L214.999 113.199C208.928 109.328 208.852 105.001 208.852 102.421V82.8375C208.852 81.4715 208.473 79.7254 207.031 79.7254C206.271 79.7254 205.816 80.0285 205.209 80.4085L202.931 82.0025V102.572Z" fill="white"/>
<path d="M244.675 83.4445C242.397 82.4576 240.273 81.0915 238.298 79.4975V101.51C238.298 103.787 238.754 105.837 240.195 105.837C240.575 105.837 241.182 105.761 241.789 105.305L244.675 103.18V83.4445ZM226.913 84.3555C226.913 78.8145 237.312 79.2694 244.979 71.6035C249 75.8545 254.843 79.0854 259.703 79.8345V80.8636C256.819 80.8636 256.06 81.9266 256.06 84.6585V106.444C256.06 107.583 257.122 108.569 258.186 109.935C259.172 111.301 260.234 113.047 260.234 115.856C260.234 124.964 250.519 129.746 242.549 129.746C237.387 129.746 227.9 128.987 227.9 121.852C227.9 118.664 230.633 116.842 233.592 116.842C236.553 116.842 240.273 118.21 240.195 121.701C240.195 126.938 235.49 125.647 235.49 127.014C235.49 128.228 239.134 128.38 240.12 128.38C244.979 128.38 250.671 126.331 250.671 120.638C250.671 114.945 244.826 113.806 244.826 104.546C241.031 107.203 237.387 110.088 233.971 113.2C227.671 109.48 226.913 107.279 226.913 102.725V84.3555Z" fill="white"/>
<path d="M275.49 96.6518C275.49 99.9158 275.794 103.408 278.298 103.408C280.347 103.408 282.093 101.965 283.155 101.283L283.763 102.041L271.163 113.2C268.811 109.631 264.484 105.913 260.233 105.002V103.863C260.84 104.015 261.372 104.091 261.827 104.091C263.877 104.091 264.105 103.256 264.105 100.903V80.8558H260.242V79.8269C268.213 77.6259 271.846 68.4159 274.124 61.1289H275.49V76.6139H283.233V80.8148H275.49V96.6518Z" fill="white"/>
<path d="M297.349 99.9915C299.778 101.207 301.902 103.029 303.724 104.697V85.2665C303.724 81.7754 302.662 79.3465 297.349 78.2074V99.9915ZM285.962 78.0555C293.326 78.2835 302.13 76.7655 307.14 71.6035C314.275 76.6135 315.109 79.6495 315.109 90.1245C315.109 103.484 313.896 105.078 307.596 106.596C303.421 107.583 300.612 109.101 298.486 113.2C294.161 109.253 288.999 105.837 283.155 104.243V103.332C285.811 103.104 285.962 101.131 285.962 100.22V78.0555Z" fill="white"/>
<path d="M332.186 102.572C332.186 104.014 332.793 104.925 334.312 105.001V105.912C330.441 106.974 327.861 110.087 326.571 113.199C324.066 109.708 320.954 106.899 316.931 105.912V105.001H318.145C320.269 105.001 320.801 103.712 320.801 100.827V83.9004C320.801 81.2434 319.586 80.2564 318.145 80.2564C317.31 80.2564 316.323 81.0915 315.791 81.6994L315.184 80.7125L325.203 71.6035C328.923 73.6535 332.111 75.7785 332.186 80.7125L344.635 71.6035C346.685 74.5644 349.72 77.5245 353.592 79.0425V79.9525C350.631 79.9525 349.493 80.9394 349.493 83.9005V101.131C349.493 103.56 350.631 104.622 351.921 104.622C352.985 104.622 353.668 104.015 354.807 103.256L355.186 104.015L344.256 113.199C338.184 109.328 338.107 105.001 338.107 102.421V82.8375C338.107 81.4715 337.728 79.7254 336.286 79.7254C335.526 79.7254 335.072 80.0285 334.464 80.4085L332.186 82.0025V102.572Z" fill="white"/>
<path d="M89.1587 7.80736C89.9287 8.57636 90.8857 10.4814 91.0657 11.5474L91.1827 11.8434C93.2547 3.43736 100.25 1.81836 110.18 1.81836H110.635V3.18336H108.967C103.059 3.18336 102.074 7.34746 102.074 12.8014V24.6984L114.497 15.6064C118.89 20.9084 119.801 23.0284 119.801 28.1815V42.8795C119.801 53.4885 118.291 60.9175 109.502 67.2035C106.017 69.7004 102.079 71.5975 98.2907 73.6425L97.7627 72.5805C105.413 69.1745 108.437 64.5495 108.437 50.9085V28.5594C108.437 26.1354 108.134 23.7125 106.241 23.7125C105.481 23.7125 104.953 24.0115 104.574 24.3185L102.074 26.1355V45.9814C102.074 48.0284 102.527 49.2435 103.967 49.2435C104.65 49.2435 105.557 48.8635 106.012 48.4055L106.316 49.3915C102.756 51.5165 99.4217 54.1715 96.4657 57.1286C93.9657 53.8696 90.8607 51.2846 86.8457 50.0716V49.1666C90.1787 49.2436 90.7107 47.8016 90.7107 44.7746V18.4844C90.7107 15.2414 90.0587 11.6674 89.1717 9.59536L89.1587 7.80736Z" fill="white"/>
<path d="M143.048 15.5801L131.157 20.6551C124.113 23.6842 123.279 26.3361 123.279 38.7581C123.279 49.3591 128.355 53.6071 137.748 57.095C142.291 52.7731 147.517 49.4351 152.364 45.7221L151.833 44.892C149.94 46.026 147.517 47.9971 145.017 47.9971C139.792 47.9971 135.777 44.0561 134.64 39.5131L151.38 28.9081L143.048 15.5801ZM134.415 38.15C134.264 37.318 134.189 36.482 134.189 34.511C134.189 30.578 134.339 25.578 134.415 20.577H134.567L141.685 33.4551L134.415 38.15Z" fill="white"/>
<path d="M64.0895 14.3721C64.1415 14.5481 64.1485 15.2891 64.1485 15.2891C54.3735 20.1191 52.1685 42.9501 64.4305 47.2671C72.8545 50.2321 82.4915 48.4131 86.0925 37.989C86.3225 38.008 87.0985 37.994 87.0985 37.994C86.9835 39.316 84.2265 58.66 65.9065 58.1301C48.1635 57.6171 44.8125 43.6431 44.8125 36.7411C44.8125 30.4151 48.3115 18.296 64.0895 14.3721Z" fill="white"/>
<path d="M78.1486 5.98351C81.9866 6.87641 83.0016 2.12641 76.1596 2.12641C76.1456 2.05551 76.0876 1.49441 76.0706 1.42641C76.0706 1.42641 79.6386 0.502407 82.2116 1.19241C84.8306 1.89541 87.8286 4.08051 87.8286 8.85541C87.8286 13.9825 81.7516 18.8565 73.2826 16.4224C64.9466 14.0274 59.1766 12.4284 56.2716 11.5574C51.0336 9.98841 49.1536 15.8024 53.4656 17.6704C53.4656 17.6704 53.1596 18.2554 53.1036 18.3854C49.6086 17.8104 46.2436 14.1695 46.2756 10.0614C46.3076 5.96551 47.9536 4.17441 50.1096 2.78041C51.9006 1.62151 54.9056 0.353507 60.8786 1.26151C63.6196 1.67751 76.1106 5.50951 78.1486 5.98351Z" fill="white"/>
<path d="M77.1592 6.92806V52.4541H78.1872V6.91406L77.1592 6.92806Z" fill="white"/>
<path d="M55.3242 28.3763L72.5992 17.4033L72.7902 17.4983L72.7952 19.8434V33.2754C72.7952 34.9443 73.1112 38.1743 67.3852 41.9064L58.1072 47.8003L57.7052 46.8423C57.7052 46.8423 62.1852 44.0293 62.1852 43.9933C62.1852 43.9434 62.1742 25.2433 62.1742 25.2433L55.8972 29.2304L55.3242 28.3763Z" fill="white"/>
</svg>
